<svg xmlns="http://www.w3.org/2000/svg" viewBox="0 0 512 512">
  <rect width="512" height="512" rx="112" fill="#111111"/>
  <circle cx="256" cy="256" r="150" fill="#ffffff"/>
  <path d="M256 140l54 39-21 64h-66l-21-64 54-39z" fill="#111111"/>
  <path d="M256 140l-62-10-54 72 29 58 54-17 21-64 12-39z" fill="#111111" opacity=".92"/>
  <path d="M256 140l62-10 54 72-29 58-54-17-21-64-12-39z" fill="#111111" opacity=".92"/>
  <path d="M169 260l-21 70 66 48 42-34-33-101-54 17z" fill="#111111" opacity=".92"/>
  <path d="M343 260l21 70-66 48-42-34 33-101 54 17z" fill="#111111" opacity=".92"/>
  <path d="M214 378l42 30 42-30-42-34-42 34z" fill="#111111"/>
</svg>
